<svg width="120" height="32" viewBox="0 0 120 32" fill="none" xmlns="http://www.w3.org/2000/svg">
  <path d="M16 0C7.163 0 0 7.163 0 16C0 24.837 7.163 32 16 32C24.837 32 32 24.837 32 16C32 7.163 24.837 0 16 0ZM16 24C11.582 24 8 20.418 8 16C8 11.582 11.582 8 16 8C20.418 8 24 11.582 24 16C24 20.418 20.418 24 16 24Z" fill="#10A37F"/>
  <path d="M44.752 23V8.2H51.728C53.36 8.2 54.688 8.536 55.712 9.208C56.736 9.864 57.472 10.76 57.92 11.896C58.384 13.032 58.616 14.304 58.616 15.712C58.616 17.088 58.384 18.336 57.92 19.456C57.472 20.576 56.736 21.464 55.712 22.12C54.688 22.776 53.36 23.104 51.728 23.104H44.752V23ZM51.512 20.696C52.6 20.696 53.488 20.48 54.176 20.048C54.864 19.616 55.368 19.016 55.688 18.248C56.008 17.48 56.168 16.624 56.168 15.68C56.168 14.72 56.008 13.856 55.688 13.088C55.368 12.32 54.864 11.72 54.176 11.288C53.488 10.856 52.6 10.64 51.512 10.64H47.104V20.696H51.512Z" fill="currentColor"/>
  <path d="M61.4209 23V8.2H72.7289V10.64H63.7729V14.48H71.9889V16.92H63.7729V20.56H72.7289V23H61.4209Z" fill="currentColor"/>
  <path d="M75.3498 23V8.2H77.7018V20.56H85.9658V23H75.3498Z" fill="currentColor"/>
  <path d="M88.6907 23V8.2H91.0427V23H88.6907Z" fill="currentColor"/>
  <path d="M104.111 23L97.9189 14.096V23H95.5669V8.2H97.9189L104.111 17.104V8.2H106.463V23H104.111Z" fill="currentColor"/>
  <path d="M119.479 23L118.199 19.864H111.319L110.039 23H107.543L113.287 8.2H116.231L121.975 23H119.479ZM117.319 17.424L114.759 10.976L112.199 17.424H117.319Z" fill="currentColor"/>
</svg>